<svg id="Layer_1" data-name="Layer 1" xmlns="http://www.w3.org/2000/svg" xmlns:xlink="http://www.w3.org/1999/xlink" viewBox="0 0 1260 214"><defs><style>.cls-1{fill:url(#linear-gradient);}</style><linearGradient id="linear-gradient" x1="111.86" y1="95.01" x2="1260.86" y2="123.81" gradientUnits="userSpaceOnUse"><stop offset="0" stop-color="#7091b1"/><stop offset="1" stop-color="#66649a"/></linearGradient></defs><title>footer</title><path class="cls-1" d="M1259.67,1A341.23,341.23,0,0,1,1122,106.17a358.25,358.25,0,0,1-105,26.3c-13.89,1.21-46.63,3.2-127-10.88-70.89-12.42-69.7-18.23-125-28.11-17.72-3.17-94.4-16.25-195-11.79a947.83,947.83,0,0,0-118,12.7c-101,16.76-107.94,27.46-180,36.26a755.24,755.24,0,0,1-138,3.63A668.3,668.3,0,0,1,0,110V215H1260V1Z" transform="translate(0 -1)"/></svg>