<svg id="Layer_1" data-name="Layer 1" xmlns="http://www.w3.org/2000/svg" xmlns:xlink="http://www.w3.org/1999/xlink" viewBox="0 0 1260 408"><defs><style>.cls-1{fill:url(#linear-gradient);}.cls-2{fill:url(#linear-gradient-2);}.cls-3{font-size:128px;fill:#f2f2f2;font-family:WendyOne-Regular, Wendy One;}</style><linearGradient id="linear-gradient" x1="107.13" y1="190.89" x2="1260.55" y2="219.8" gradientUnits="userSpaceOnUse"><stop offset="0" stop-color="#7091b1"/><stop offset="1" stop-color="#66649a"/></linearGradient><linearGradient id="linear-gradient-2" x1="543.07" y1="341.38" x2="543.07" y2="341.38" gradientUnits="userSpaceOnUse"><stop offset="0" stop-color="#709cbc"/><stop offset="1" stop-color="#6b5596"/></linearGradient></defs><title>headbar</title><path class="cls-1" d="M0,0V408H.33A341.23,341.23,0,0,1,138,302.83a358.25,358.25,0,0,1,105-26.3c13.89-1.21,46.63-3.2,127,10.88,70.89,12.42,69.7,18.23,125,28.11,17.72,3.17,94.4,16.25,195,11.79a947.83,947.83,0,0,0,118-12.7c101-16.76,107.94-27.46,180-36.26a755.24,755.24,0,0,1,138-3.63A668.3,668.3,0,0,1,1260,299V0Z"/><path class="cls-2" d="M543.07,341.38"/><text class="cls-3" transform="translate(294.6 183.09)">hey, unbyte!</text></svg>