<svg id="Layer_1" data-name="Layer 1" xmlns="http://www.w3.org/2000/svg" xmlns:xlink="http://www.w3.org/1999/xlink" viewBox="0 0 1260 408"><defs><style>.cls-1{fill:url(#linear-gradient);}.cls-2{fill:url(#linear-gradient-2);}.cls-3{fill:#f2f2f2;}</style><linearGradient id="linear-gradient" x1="107.13" y1="190.89" x2="1260.55" y2="219.8" gradientUnits="userSpaceOnUse"><stop offset="0" stop-color="#7091b1"/><stop offset="1" stop-color="#66649a"/></linearGradient><linearGradient id="linear-gradient-2" x1="543.07" y1="341.38" x2="543.07" y2="341.38" gradientUnits="userSpaceOnUse"><stop offset="0" stop-color="#709cbc"/><stop offset="1" stop-color="#6b5596"/></linearGradient></defs><title>header</title><path class="cls-1" d="M0,0V408H.33a341,341,0,0,1,80.94-74.91A352.31,352.31,0,0,1,138,302.83c20-8.65,47-20,84-24.83,24.11-3.14,42.27-2.14,63-1,28.9,1.59,49.57,5.35,80,11,29.95,5.56,36.42,8.1,98.79,21.11,17.14,3.58,25.69,5.42,31.21,6.41,17.72,3.17,94.4,16.25,195,11.79a947.83,947.83,0,0,0,118-12.7c101-16.76,107.94-27.46,180-36.26a755.24,755.24,0,0,1,138-3.63A668.3,668.3,0,0,1,1260,299V0Z"/><path class="cls-2" d="M543.07,341.38"/><path class="cls-3" d="M332.77,120.63a16.77,16.77,0,0,1,11.9,4.29,21.26,21.26,0,0,1,6.21,10.3,61,61,0,0,1,1.6,15.36q0,9.34-2.94,32.51h-22.4l-2.82-29.69q-.76-7.68-2.05-10.24a4.47,4.47,0,0,0-4.35-2.56q-7.55,0-8.19,12.92l-1.28,29.57H284.9L281.44,100h30.47l-1.28,33.28q4.1-8.19,13.56-11.39A27.94,27.94,0,0,1,332.77,120.63Z"/><path class="cls-3" d="M393.57,184.37q-14.47,0-24.26-8.38t-9.79-24.64q0-10.24,5-17.41,9.09-13.31,28.16-13.31,14.59,0,22.27,5.82t7.69,16.07a15.54,15.54,0,0,1-6.34,12.86q-6.35,4.94-18.5,4.93a47.57,47.57,0,0,1-9-.77l-1.41-.26a9.25,9.25,0,0,0,4,6.85,14.35,14.35,0,0,0,8.12,2.24,19.76,19.76,0,0,0,13.32-4.73l7.93,9.6a29.47,29.47,0,0,1-4.86,4.54,36.34,36.34,0,0,1-9,4.35A38.84,38.84,0,0,1,393.57,184.37Zm10.37-43a5.29,5.29,0,0,0-2-4.22,8.19,8.19,0,0,0-5.44-1.66,9,9,0,0,0-6.46,3.07,10.06,10.06,0,0,0-3,7.29,17.83,17.83,0,0,0,7.36,1.29,13,13,0,0,0,7-1.61A4.79,4.79,0,0,0,403.94,141.36Z"/><path class="cls-3" d="M474.08,168.88v-1a14.39,14.39,0,0,1-2,4.8,21.06,21.06,0,0,1-3.52,4.42,17.62,17.62,0,0,1-5.44,3.2,25.42,25.42,0,0,1-9.28,1.4A23.5,23.5,0,0,1,443,179.06a19.47,19.47,0,0,1-7.94-7.23A34.89,34.89,0,0,1,429.66,153q0-10.3,2.95-30.53h24.83v27.65q0,14.09,8.32,14.08a5.86,5.86,0,0,0,5.5-3.33,17.63,17.63,0,0,0,1.8-8.45V151l-1.16-28.54h28.8l-1.79,39.3q-.37,8.31-1.21,14.2a60.6,60.6,0,0,1-3.08,12.1,28.82,28.82,0,0,1-5.82,10q-8.32,8.7-24.7,8.7a36.74,36.74,0,0,1-21.64-7.17l-1.15-.76,5.38-11a27.82,27.82,0,0,0,11.52,2.81A13.72,13.72,0,0,0,469.86,185Q474.08,179.25,474.08,168.88Z"/><path class="cls-3" d="M506.46,192.69V175.16a8.82,8.82,0,0,1,2.5-6.08q2.49-2.76,7.17-2.76t7.16,2.69a8.68,8.68,0,0,1,2.5,6.08q0,3.39-4,9.15l-5.76,8.45Z"/><path class="cls-3" d="M582,184.37q-24.19,0-24.19-32.89,0-8.83,2.94-29.06h24.84v27.65q0,14.85,8.31,14.85,7.3,0,7.3-13.32v-2.17l-1.15-27h28.8l-2.69,60.67H604.51l-1.41-11.77c-.17.34-.38.81-.64,1.4a17.94,17.94,0,0,1-2.11,3.14,22.91,22.91,0,0,1-3.9,4,21.77,21.77,0,0,1-6,3.13A24.36,24.36,0,0,1,582,184.37Z"/><path class="cls-3" d="M684.89,120.63q9,0,15.43,7.55t6.46,19.65q0,12.09-2.94,35.26h-22.4l-2.56-28.67q-1.29-13.69-7.43-13.7-7.29,0-7.81,13.83l-.89,28.54H639.2l-2.69-60.67h28.93l-.52,10.88a24,24,0,0,1,3-4,30,30,0,0,1,4.48-4.35A20,20,0,0,1,684.89,120.63Z"/><path class="cls-3" d="M744.28,126a19.93,19.93,0,0,1,5.19-3.32,18.6,18.6,0,0,1,8.57-2.05,27,27,0,0,1,8.71,1.41,28.14,28.14,0,0,1,8.19,4.54q4,3.13,6.53,9.54A41.94,41.94,0,0,1,784,151.35q0,16.13-7.29,24.57A23.58,23.58,0,0,1,758,184.37a22.1,22.1,0,0,1-18.43-9.21,1.64,1.64,0,0,0-.26-.39l-2.17,8.32h-19.2L714.46,100h29.18l-1,28A21.36,21.36,0,0,1,744.28,126Zm5.64,11.78q-8.46,0-8.45,15.36a21.62,21.62,0,0,0,2,9.41q2,4.15,5.7,4.16a6.38,6.38,0,0,0,5.63-2.82,13,13,0,0,0,2.3-5.37,35.74,35.74,0,0,0,.39-5.38Q757.47,137.78,749.92,137.78Z"/><path class="cls-3" d="M835.42,168.88v-1a14.23,14.23,0,0,1-2,4.8,20.74,20.74,0,0,1-3.52,4.42,17.51,17.51,0,0,1-5.44,3.2,25.39,25.39,0,0,1-9.28,1.4,23.53,23.53,0,0,1-10.88-2.62,19.44,19.44,0,0,1-7.93-7.23A34.8,34.8,0,0,1,791,153q0-10.3,3-30.53h24.83v27.65q0,14.09,8.32,14.08a5.86,5.86,0,0,0,5.5-3.33,17.64,17.64,0,0,0,1.79-8.45V151l-1.15-28.54H862l-1.79,39.3q-.39,8.31-1.22,14.2A60.56,60.56,0,0,1,856,188a28.82,28.82,0,0,1-5.82,10q-8.32,8.7-24.71,8.7a36.71,36.71,0,0,1-21.63-7.17l-1.15-.76,5.38-11a27.82,27.82,0,0,0,11.52,2.81A13.7,13.7,0,0,0,831.19,185Q835.42,179.25,835.42,168.88Z"/><path class="cls-3" d="M903,160.31q-.13,7.42,5.25,7.42a7.23,7.23,0,0,0,3.71-1.41l2.69,12.42c-.51.43-1.22,1-2.11,1.6a27.32,27.32,0,0,1-5.76,2.5,27.82,27.82,0,0,1-9.16,1.53,18.44,18.44,0,0,1-14.2-6q-5.5-6-5.89-15.17l-1.15-24.19h-9.86l1.54-16.64h7.68l-.52-12.54,30.34-6.15-.9,18.69h7.43l1.53,16.64H903.9Z"/><path class="cls-3" d="M955.73,184.37q-14.46,0-24.25-8.38t-9.79-24.64q0-10.24,5-17.41,9.09-13.31,28.16-13.31,14.6,0,22.27,5.82t7.68,16.07a15.51,15.51,0,0,1-6.34,12.86q-6.33,4.94-18.49,4.93a47.5,47.5,0,0,1-9-.77l-1.41-.26a9.27,9.27,0,0,0,4,6.85,14.36,14.36,0,0,0,8.13,2.24,19.75,19.75,0,0,0,13.31-4.73l7.94,9.6a29.55,29.55,0,0,1-4.87,4.54,36,36,0,0,1-9,4.35A38.76,38.76,0,0,1,955.73,184.37Zm10.37-43a5.28,5.28,0,0,0-2-4.22,8.22,8.22,0,0,0-5.44-1.66,9,9,0,0,0-6.47,3.07,10.09,10.09,0,0,0-3,7.29,17.79,17.79,0,0,0,7.36,1.29,13,13,0,0,0,7-1.61A4.78,4.78,0,0,0,966.1,141.36Z"/><path class="cls-3" d="M1006.55,159.41q-6.78,0-11.14,2.82L992,105.52h29.18l-3.45,56.71Q1013.33,159.41,1006.55,159.41Zm-7.3,9.15c1.62-1.74,4.06-2.62,7.3-2.62s5.67.88,7.3,2.62a10.16,10.16,0,0,1,0,13.19q-2.45,2.63-7.3,2.62c-3.24,0-5.68-.87-7.3-2.62a10.16,10.16,0,0,1,0-13.19Z"/></svg>