<svg xmlns="http://www.w3.org/2000/svg" viewBox="0 0 400 400"><title>id</title><path d="M235,166.66l4.6-4.74c1.2.77,2.41,1.6,3.65,2.5s2.45,1.72,3.65,2.49l-2.82,4-6.53,63.23-4.73,6.15-3.2-4,6.27-65.79-67.07,4.6.51,25.48q6.41-.51,13.44-1.16T196.8,198q7-.78,13.89-1.67t12.86-1.92l5.12,4.61L226.11,201c-1.19,0-3.09.06-5.69.19s-5.59.3-9,.52l-11,.7-11.58.77q-5.7.38-10.75.83t-8.64.7l.64,26.75q14.2-.63,27.52-1.92t26.49-3.07l4.48,4.74-2.56,2.05c-.85-.09-2.49-.11-4.93-.07s-5.33.15-8.7.32-7,.34-11,.51l-11.71.52q-5.76.25-10.88.57t-8.45.45l-4.93,6.53-3.13-3.33q-.36-16.26-.9-32.06t-.89-31.94a15.77,15.77,0,0,0-.9-5.89,26.55,26.55,0,0,0-2.43-4.48,9.92,9.92,0,0,0,1.34-.89,7.13,7.13,0,0,1,1.09-.77l10,8.45,10.63-.77q2.81-4.23,5.5-9.15t4.74-9.54a76.83,76.83,0,0,0,3.26-8.58,28.4,28.4,0,0,0,1.35-6.39l1-.39,10.11,9.35q-5.88,5.88-11.2,12.22a133.74,133.74,0,0,1-11.84,12.35Z"/></svg>